<svg xmlns="http://www.w3.org/2000/svg" version="1.1" xmlns:xlink="http://www.w3.org/1999/xlink" xmlns:svgjs="http://svgjs.com/svgjs" width="1440" height="560" preserveAspectRatio="none" viewBox="0 0 1440 560"><g mask="url(&quot;#SvgjsMask1097&quot;)" fill="none"><rect width="1440" height="560" x="0" y="0" fill="rgba(12, 19, 29, 1)"></rect><path d="M108.14 61.48L159.23 90.98L159.23 149.98L108.14 179.48L57.04 149.98L57.04 90.98zM108.14 415.48L159.23 444.98L159.23 503.98L108.14 533.48L57.04 503.98L57.04 444.98zM57.04 503.98L108.14 533.48L108.14 592.48L57.04 621.98L5.94 592.48L5.94 533.48zM159.23 149.98L210.33 179.48L210.33 238.48L159.23 267.98L108.14 238.48L108.14 179.48zM159.23 326.98L210.33 356.48L210.33 415.48L159.23 444.98L108.14 415.48L108.14 356.48zM261.43 -27.02L312.52 2.48L312.52 61.48L261.43 90.98L210.33 61.48L210.33 2.48zM312.52 61.48L363.62 90.98L363.62 149.98L312.52 179.48L261.43 149.98L261.43 90.98zM261.43 149.98L312.52 179.48L312.52 238.48L261.43 267.98L210.33 238.48L210.33 179.48zM261.43 503.98L312.52 533.48L312.52 592.48L261.43 621.98L210.33 592.48L210.33 533.48zM363.62 326.98L414.72 356.48L414.72 415.48L363.62 444.98L312.52 415.48L312.52 356.48zM414.72 415.48L465.82 444.98L465.82 503.98L414.72 533.48L363.62 503.98L363.62 444.98zM363.62 503.98L414.72 533.48L414.72 592.48L363.62 621.98L312.52 592.48L312.52 533.48zM516.91 61.48L568.01 90.98L568.01 149.98L516.91 179.48L465.82 149.98L465.82 90.98zM465.82 149.98L516.91 179.48L516.91 238.48L465.82 267.98L414.72 238.48L414.72 179.48zM516.91 415.48L568.01 444.98L568.01 503.98L516.91 533.48L465.82 503.98L465.82 444.98zM568.01 503.98L619.11 533.48L619.11 592.48L568.01 621.98L516.91 592.48L516.91 533.48zM721.3 415.48L772.4 444.98L772.4 503.98L721.3 533.48L670.2 503.98L670.2 444.98zM772.4 -27.02L823.49 2.48L823.49 61.48L772.4 90.98L721.3 61.48L721.3 2.48zM823.49 61.48L874.59 90.98L874.59 149.98L823.49 179.48L772.4 149.98L772.4 90.98zM823.49 238.48L874.59 267.98L874.59 326.98L823.49 356.48L772.4 326.98L772.4 267.98zM823.49 415.48L874.59 444.98L874.59 503.98L823.49 533.48L772.4 503.98L772.4 444.98zM772.4 503.98L823.49 533.48L823.49 592.48L772.4 621.98L721.3 592.48L721.3 533.48zM874.59 326.98L925.69 356.48L925.69 415.48L874.59 444.98L823.49 415.48L823.49 356.48zM1027.88 61.48L1078.98 90.98L1078.98 149.98L1027.88 179.48L976.79 149.98L976.79 90.98zM976.79 149.98L1027.88 179.48L1027.88 238.48L976.79 267.98L925.69 238.48L925.69 179.48zM976.79 326.98L1027.88 356.48L1027.88 415.48L976.79 444.98L925.69 415.48L925.69 356.48zM1078.98 -27.02L1130.08 2.48L1130.08 61.48L1078.98 90.98L1027.88 61.48L1027.88 2.48zM1130.08 61.48L1181.17 90.98L1181.17 149.98L1130.08 179.48L1078.98 149.98L1078.98 90.98zM1078.98 149.98L1130.08 179.48L1130.08 238.48L1078.98 267.98L1027.88 238.48L1027.88 179.48zM1130.08 415.48L1181.17 444.98L1181.17 503.98L1130.08 533.48L1078.98 503.98L1078.98 444.98zM1078.98 503.98L1130.08 533.48L1130.08 592.48L1078.98 621.98L1027.88 592.48L1027.88 533.48zM1232.27 61.48L1283.37 90.98L1283.37 149.98L1232.27 179.48L1181.17 149.98L1181.17 90.98zM1181.17 149.98L1232.27 179.48L1232.27 238.48L1181.17 267.98L1130.08 238.48L1130.08 179.48zM1232.27 238.48L1283.37 267.98L1283.37 326.98L1232.27 356.48L1181.17 326.98L1181.17 267.98zM1232.27 415.48L1283.37 444.98L1283.37 503.98L1232.27 533.48L1181.17 503.98L1181.17 444.98zM1283.37 -27.02L1334.46 2.48L1334.46 61.48L1283.37 90.98L1232.27 61.48L1232.27 2.48zM1283.37 149.98L1334.46 179.48L1334.46 238.48L1283.37 267.98L1232.27 238.48L1232.27 179.48zM1436.66 61.48L1487.75 90.98L1487.75 149.98L1436.66 179.48L1385.56 149.98L1385.56 90.98zM1436.66 415.48L1487.75 444.98L1487.75 503.98L1436.66 533.48L1385.56 503.98L1385.56 444.98zM1538.85 238.48L1589.95 267.98L1589.95 326.98L1538.85 356.48L1487.75 326.98L1487.75 267.98zM1487.75 503.98L1538.85 533.48L1538.85 592.48L1487.75 621.98L1436.66 592.48L1436.66 533.48z" stroke="rgba(2, 52, 101, 1)" stroke-width="2"></path><path d="M102.24 61.48 a5.9 5.9 0 1 0 11.8 0 a5.9 5.9 0 1 0 -11.8 0zM153.33 90.98 a5.9 5.9 0 1 0 11.8 0 a5.9 5.9 0 1 0 -11.8 0zM153.33 149.98 a5.9 5.9 0 1 0 11.8 0 a5.9 5.9 0 1 0 -11.8 0zM102.24 179.48 a5.9 5.9 0 1 0 11.8 0 a5.9 5.9 0 1 0 -11.8 0zM51.14 149.98 a5.9 5.9 0 1 0 11.8 0 a5.9 5.9 0 1 0 -11.8 0zM51.14 90.98 a5.9 5.9 0 1 0 11.8 0 a5.9 5.9 0 1 0 -11.8 0zM102.24 415.48 a5.9 5.9 0 1 0 11.8 0 a5.9 5.9 0 1 0 -11.8 0zM153.33 444.98 a5.9 5.9 0 1 0 11.8 0 a5.9 5.9 0 1 0 -11.8 0zM153.33 503.98 a5.9 5.9 0 1 0 11.8 0 a5.9 5.9 0 1 0 -11.8 0zM102.24 533.48 a5.9 5.9 0 1 0 11.8 0 a5.9 5.9 0 1 0 -11.8 0zM51.14 503.98 a5.9 5.9 0 1 0 11.8 0 a5.9 5.9 0 1 0 -11.8 0zM51.14 444.98 a5.9 5.9 0 1 0 11.8 0 a5.9 5.9 0 1 0 -11.8 0zM102.24 592.48 a5.9 5.9 0 1 0 11.8 0 a5.9 5.9 0 1 0 -11.8 0zM51.14 621.98 a5.9 5.9 0 1 0 11.8 0 a5.9 5.9 0 1 0 -11.8 0zM0.04 592.48 a5.9 5.9 0 1 0 11.8 0 a5.9 5.9 0 1 0 -11.8 0zM0.04 533.48 a5.9 5.9 0 1 0 11.8 0 a5.9 5.9 0 1 0 -11.8 0zM204.43 179.48 a5.9 5.9 0 1 0 11.8 0 a5.9 5.9 0 1 0 -11.8 0zM204.43 238.48 a5.9 5.9 0 1 0 11.8 0 a5.9 5.9 0 1 0 -11.8 0zM153.33 267.98 a5.9 5.9 0 1 0 11.8 0 a5.9 5.9 0 1 0 -11.8 0zM102.24 238.48 a5.9 5.9 0 1 0 11.8 0 a5.9 5.9 0 1 0 -11.8 0zM153.33 326.98 a5.9 5.9 0 1 0 11.8 0 a5.9 5.9 0 1 0 -11.8 0zM204.43 356.48 a5.9 5.9 0 1 0 11.8 0 a5.9 5.9 0 1 0 -11.8 0zM204.43 415.48 a5.9 5.9 0 1 0 11.8 0 a5.9 5.9 0 1 0 -11.8 0zM102.24 356.48 a5.9 5.9 0 1 0 11.8 0 a5.9 5.9 0 1 0 -11.8 0zM255.53 -27.02 a5.9 5.9 0 1 0 11.8 0 a5.9 5.9 0 1 0 -11.8 0zM306.62 2.48 a5.9 5.9 0 1 0 11.8 0 a5.9 5.9 0 1 0 -11.8 0zM306.62 61.48 a5.9 5.9 0 1 0 11.8 0 a5.9 5.9 0 1 0 -11.8 0zM255.53 90.98 a5.9 5.9 0 1 0 11.8 0 a5.9 5.9 0 1 0 -11.8 0zM204.43 61.48 a5.9 5.9 0 1 0 11.8 0 a5.9 5.9 0 1 0 -11.8 0zM204.43 2.48 a5.9 5.9 0 1 0 11.8 0 a5.9 5.9 0 1 0 -11.8 0zM357.72 90.98 a5.9 5.9 0 1 0 11.8 0 a5.9 5.9 0 1 0 -11.8 0zM357.72 149.98 a5.9 5.9 0 1 0 11.8 0 a5.9 5.9 0 1 0 -11.8 0zM306.62 179.48 a5.9 5.9 0 1 0 11.8 0 a5.9 5.9 0 1 0 -11.8 0zM255.53 149.98 a5.9 5.9 0 1 0 11.8 0 a5.9 5.9 0 1 0 -11.8 0zM306.62 238.48 a5.9 5.9 0 1 0 11.8 0 a5.9 5.9 0 1 0 -11.8 0zM255.53 267.98 a5.9 5.9 0 1 0 11.8 0 a5.9 5.9 0 1 0 -11.8 0zM255.53 503.98 a5.9 5.9 0 1 0 11.8 0 a5.9 5.9 0 1 0 -11.8 0zM306.62 533.48 a5.9 5.9 0 1 0 11.8 0 a5.9 5.9 0 1 0 -11.8 0zM306.62 592.48 a5.9 5.9 0 1 0 11.8 0 a5.9 5.9 0 1 0 -11.8 0zM255.53 621.98 a5.9 5.9 0 1 0 11.8 0 a5.9 5.9 0 1 0 -11.8 0zM204.43 592.48 a5.9 5.9 0 1 0 11.8 0 a5.9 5.9 0 1 0 -11.8 0zM204.43 533.48 a5.9 5.9 0 1 0 11.8 0 a5.9 5.9 0 1 0 -11.8 0zM357.72 326.98 a5.9 5.9 0 1 0 11.8 0 a5.9 5.9 0 1 0 -11.8 0zM408.82 356.48 a5.9 5.9 0 1 0 11.8 0 a5.9 5.9 0 1 0 -11.8 0zM408.82 415.48 a5.9 5.9 0 1 0 11.8 0 a5.9 5.9 0 1 0 -11.8 0zM357.72 444.98 a5.9 5.9 0 1 0 11.8 0 a5.9 5.9 0 1 0 -11.8 0zM306.62 415.48 a5.9 5.9 0 1 0 11.8 0 a5.9 5.9 0 1 0 -11.8 0zM306.62 356.48 a5.9 5.9 0 1 0 11.8 0 a5.9 5.9 0 1 0 -11.8 0zM459.92 444.98 a5.9 5.9 0 1 0 11.8 0 a5.9 5.9 0 1 0 -11.8 0zM459.92 503.98 a5.9 5.9 0 1 0 11.8 0 a5.9 5.9 0 1 0 -11.8 0zM408.82 533.48 a5.9 5.9 0 1 0 11.8 0 a5.9 5.9 0 1 0 -11.8 0zM357.72 503.98 a5.9 5.9 0 1 0 11.8 0 a5.9 5.9 0 1 0 -11.8 0zM408.82 592.48 a5.9 5.9 0 1 0 11.8 0 a5.9 5.9 0 1 0 -11.8 0zM357.72 621.98 a5.9 5.9 0 1 0 11.8 0 a5.9 5.9 0 1 0 -11.8 0zM511.01 61.48 a5.9 5.9 0 1 0 11.8 0 a5.9 5.9 0 1 0 -11.8 0zM562.11 90.98 a5.9 5.9 0 1 0 11.8 0 a5.9 5.9 0 1 0 -11.8 0zM562.11 149.98 a5.9 5.9 0 1 0 11.8 0 a5.9 5.9 0 1 0 -11.8 0zM511.01 179.48 a5.9 5.9 0 1 0 11.8 0 a5.9 5.9 0 1 0 -11.8 0zM459.92 149.98 a5.9 5.9 0 1 0 11.8 0 a5.9 5.9 0 1 0 -11.8 0zM459.92 90.98 a5.9 5.9 0 1 0 11.8 0 a5.9 5.9 0 1 0 -11.8 0zM511.01 238.48 a5.9 5.9 0 1 0 11.8 0 a5.9 5.9 0 1 0 -11.8 0zM459.92 267.98 a5.9 5.9 0 1 0 11.8 0 a5.9 5.9 0 1 0 -11.8 0zM408.82 238.48 a5.9 5.9 0 1 0 11.8 0 a5.9 5.9 0 1 0 -11.8 0zM408.82 179.48 a5.9 5.9 0 1 0 11.8 0 a5.9 5.9 0 1 0 -11.8 0zM511.01 415.48 a5.9 5.9 0 1 0 11.8 0 a5.9 5.9 0 1 0 -11.8 0zM562.11 444.98 a5.9 5.9 0 1 0 11.8 0 a5.9 5.9 0 1 0 -11.8 0zM562.11 503.98 a5.9 5.9 0 1 0 11.8 0 a5.9 5.9 0 1 0 -11.8 0zM511.01 533.48 a5.9 5.9 0 1 0 11.8 0 a5.9 5.9 0 1 0 -11.8 0zM613.21 533.48 a5.9 5.9 0 1 0 11.8 0 a5.9 5.9 0 1 0 -11.8 0zM613.21 592.48 a5.9 5.9 0 1 0 11.8 0 a5.9 5.9 0 1 0 -11.8 0zM562.11 621.98 a5.9 5.9 0 1 0 11.8 0 a5.9 5.9 0 1 0 -11.8 0zM511.01 592.48 a5.9 5.9 0 1 0 11.8 0 a5.9 5.9 0 1 0 -11.8 0zM715.4 415.48 a5.9 5.9 0 1 0 11.8 0 a5.9 5.9 0 1 0 -11.8 0zM766.5 444.98 a5.9 5.9 0 1 0 11.8 0 a5.9 5.9 0 1 0 -11.8 0zM766.5 503.98 a5.9 5.9 0 1 0 11.8 0 a5.9 5.9 0 1 0 -11.8 0zM715.4 533.48 a5.9 5.9 0 1 0 11.8 0 a5.9 5.9 0 1 0 -11.8 0zM664.3 503.98 a5.9 5.9 0 1 0 11.8 0 a5.9 5.9 0 1 0 -11.8 0zM664.3 444.98 a5.9 5.9 0 1 0 11.8 0 a5.9 5.9 0 1 0 -11.8 0zM766.5 -27.02 a5.9 5.9 0 1 0 11.8 0 a5.9 5.9 0 1 0 -11.8 0zM817.59 2.48 a5.9 5.9 0 1 0 11.8 0 a5.9 5.9 0 1 0 -11.8 0zM817.59 61.48 a5.9 5.9 0 1 0 11.8 0 a5.9 5.9 0 1 0 -11.8 0zM766.5 90.98 a5.9 5.9 0 1 0 11.8 0 a5.9 5.9 0 1 0 -11.8 0zM715.4 61.48 a5.9 5.9 0 1 0 11.8 0 a5.9 5.9 0 1 0 -11.8 0zM715.4 2.48 a5.9 5.9 0 1 0 11.8 0 a5.9 5.9 0 1 0 -11.8 0zM868.69 90.98 a5.9 5.9 0 1 0 11.8 0 a5.9 5.9 0 1 0 -11.8 0zM868.69 149.98 a5.9 5.9 0 1 0 11.8 0 a5.9 5.9 0 1 0 -11.8 0zM817.59 179.48 a5.9 5.9 0 1 0 11.8 0 a5.9 5.9 0 1 0 -11.8 0zM766.5 149.98 a5.9 5.9 0 1 0 11.8 0 a5.9 5.9 0 1 0 -11.8 0zM817.59 238.48 a5.9 5.9 0 1 0 11.8 0 a5.9 5.9 0 1 0 -11.8 0zM868.69 267.98 a5.9 5.9 0 1 0 11.8 0 a5.9 5.9 0 1 0 -11.8 0zM868.69 326.98 a5.9 5.9 0 1 0 11.8 0 a5.9 5.9 0 1 0 -11.8 0zM817.59 356.48 a5.9 5.9 0 1 0 11.8 0 a5.9 5.9 0 1 0 -11.8 0zM766.5 326.98 a5.9 5.9 0 1 0 11.8 0 a5.9 5.9 0 1 0 -11.8 0zM766.5 267.98 a5.9 5.9 0 1 0 11.8 0 a5.9 5.9 0 1 0 -11.8 0zM817.59 415.48 a5.9 5.9 0 1 0 11.8 0 a5.9 5.9 0 1 0 -11.8 0zM868.69 444.98 a5.9 5.9 0 1 0 11.8 0 a5.9 5.9 0 1 0 -11.8 0zM868.69 503.98 a5.9 5.9 0 1 0 11.8 0 a5.9 5.9 0 1 0 -11.8 0zM817.59 533.48 a5.9 5.9 0 1 0 11.8 0 a5.9 5.9 0 1 0 -11.8 0zM817.59 592.48 a5.9 5.9 0 1 0 11.8 0 a5.9 5.9 0 1 0 -11.8 0zM766.5 621.98 a5.9 5.9 0 1 0 11.8 0 a5.9 5.9 0 1 0 -11.8 0zM715.4 592.48 a5.9 5.9 0 1 0 11.8 0 a5.9 5.9 0 1 0 -11.8 0zM919.79 356.48 a5.9 5.9 0 1 0 11.8 0 a5.9 5.9 0 1 0 -11.8 0zM919.79 415.48 a5.9 5.9 0 1 0 11.8 0 a5.9 5.9 0 1 0 -11.8 0zM1021.98 61.48 a5.9 5.9 0 1 0 11.8 0 a5.9 5.9 0 1 0 -11.8 0zM1073.08 90.98 a5.9 5.9 0 1 0 11.8 0 a5.9 5.9 0 1 0 -11.8 0zM1073.08 149.98 a5.9 5.9 0 1 0 11.8 0 a5.9 5.9 0 1 0 -11.8 0zM1021.98 179.48 a5.9 5.9 0 1 0 11.8 0 a5.9 5.9 0 1 0 -11.8 0zM970.89 149.98 a5.9 5.9 0 1 0 11.8 0 a5.9 5.9 0 1 0 -11.8 0zM970.89 90.98 a5.9 5.9 0 1 0 11.8 0 a5.9 5.9 0 1 0 -11.8 0zM1021.98 238.48 a5.9 5.9 0 1 0 11.8 0 a5.9 5.9 0 1 0 -11.8 0zM970.89 267.98 a5.9 5.9 0 1 0 11.8 0 a5.9 5.9 0 1 0 -11.8 0zM919.79 238.48 a5.9 5.9 0 1 0 11.8 0 a5.9 5.9 0 1 0 -11.8 0zM919.79 179.48 a5.9 5.9 0 1 0 11.8 0 a5.9 5.9 0 1 0 -11.8 0zM970.89 326.98 a5.9 5.9 0 1 0 11.8 0 a5.9 5.9 0 1 0 -11.8 0zM1021.98 356.48 a5.9 5.9 0 1 0 11.8 0 a5.9 5.9 0 1 0 -11.8 0zM1021.98 415.48 a5.9 5.9 0 1 0 11.8 0 a5.9 5.9 0 1 0 -11.8 0zM970.89 444.98 a5.9 5.9 0 1 0 11.8 0 a5.9 5.9 0 1 0 -11.8 0zM1073.08 -27.02 a5.9 5.9 0 1 0 11.8 0 a5.9 5.9 0 1 0 -11.8 0zM1124.18 2.48 a5.9 5.9 0 1 0 11.8 0 a5.9 5.9 0 1 0 -11.8 0zM1124.18 61.48 a5.9 5.9 0 1 0 11.8 0 a5.9 5.9 0 1 0 -11.8 0zM1021.98 2.48 a5.9 5.9 0 1 0 11.8 0 a5.9 5.9 0 1 0 -11.8 0zM1175.27 90.98 a5.9 5.9 0 1 0 11.8 0 a5.9 5.9 0 1 0 -11.8 0zM1175.27 149.98 a5.9 5.9 0 1 0 11.8 0 a5.9 5.9 0 1 0 -11.8 0zM1124.18 179.48 a5.9 5.9 0 1 0 11.8 0 a5.9 5.9 0 1 0 -11.8 0zM1124.18 238.48 a5.9 5.9 0 1 0 11.8 0 a5.9 5.9 0 1 0 -11.8 0zM1073.08 267.98 a5.9 5.9 0 1 0 11.8 0 a5.9 5.9 0 1 0 -11.8 0zM1124.18 415.48 a5.9 5.9 0 1 0 11.8 0 a5.9 5.9 0 1 0 -11.8 0zM1175.27 444.98 a5.9 5.9 0 1 0 11.8 0 a5.9 5.9 0 1 0 -11.8 0zM1175.27 503.98 a5.9 5.9 0 1 0 11.8 0 a5.9 5.9 0 1 0 -11.8 0zM1124.18 533.48 a5.9 5.9 0 1 0 11.8 0 a5.9 5.9 0 1 0 -11.8 0zM1073.08 503.98 a5.9 5.9 0 1 0 11.8 0 a5.9 5.9 0 1 0 -11.8 0zM1073.08 444.98 a5.9 5.9 0 1 0 11.8 0 a5.9 5.9 0 1 0 -11.8 0zM1124.18 592.48 a5.9 5.9 0 1 0 11.8 0 a5.9 5.9 0 1 0 -11.8 0zM1073.08 621.98 a5.9 5.9 0 1 0 11.8 0 a5.9 5.9 0 1 0 -11.8 0zM1021.98 592.48 a5.9 5.9 0 1 0 11.8 0 a5.9 5.9 0 1 0 -11.8 0zM1021.98 533.48 a5.9 5.9 0 1 0 11.8 0 a5.9 5.9 0 1 0 -11.8 0zM1226.37 61.48 a5.9 5.9 0 1 0 11.8 0 a5.9 5.9 0 1 0 -11.8 0zM1277.47 90.98 a5.9 5.9 0 1 0 11.8 0 a5.9 5.9 0 1 0 -11.8 0zM1277.47 149.98 a5.9 5.9 0 1 0 11.8 0 a5.9 5.9 0 1 0 -11.8 0zM1226.37 179.48 a5.9 5.9 0 1 0 11.8 0 a5.9 5.9 0 1 0 -11.8 0zM1226.37 238.48 a5.9 5.9 0 1 0 11.8 0 a5.9 5.9 0 1 0 -11.8 0zM1175.27 267.98 a5.9 5.9 0 1 0 11.8 0 a5.9 5.9 0 1 0 -11.8 0zM1277.47 267.98 a5.9 5.9 0 1 0 11.8 0 a5.9 5.9 0 1 0 -11.8 0zM1277.47 326.98 a5.9 5.9 0 1 0 11.8 0 a5.9 5.9 0 1 0 -11.8 0zM1226.37 356.48 a5.9 5.9 0 1 0 11.8 0 a5.9 5.9 0 1 0 -11.8 0zM1175.27 326.98 a5.9 5.9 0 1 0 11.8 0 a5.9 5.9 0 1 0 -11.8 0zM1226.37 415.48 a5.9 5.9 0 1 0 11.8 0 a5.9 5.9 0 1 0 -11.8 0zM1277.47 444.98 a5.9 5.9 0 1 0 11.8 0 a5.9 5.9 0 1 0 -11.8 0zM1277.47 503.98 a5.9 5.9 0 1 0 11.8 0 a5.9 5.9 0 1 0 -11.8 0zM1226.37 533.48 a5.9 5.9 0 1 0 11.8 0 a5.9 5.9 0 1 0 -11.8 0zM1277.47 -27.02 a5.9 5.9 0 1 0 11.8 0 a5.9 5.9 0 1 0 -11.8 0zM1328.56 2.48 a5.9 5.9 0 1 0 11.8 0 a5.9 5.9 0 1 0 -11.8 0zM1328.56 61.48 a5.9 5.9 0 1 0 11.8 0 a5.9 5.9 0 1 0 -11.8 0zM1226.37 2.48 a5.9 5.9 0 1 0 11.8 0 a5.9 5.9 0 1 0 -11.8 0zM1328.56 179.48 a5.9 5.9 0 1 0 11.8 0 a5.9 5.9 0 1 0 -11.8 0zM1328.56 238.48 a5.9 5.9 0 1 0 11.8 0 a5.9 5.9 0 1 0 -11.8 0zM1430.76 61.48 a5.9 5.9 0 1 0 11.8 0 a5.9 5.9 0 1 0 -11.8 0zM1481.85 90.98 a5.9 5.9 0 1 0 11.8 0 a5.9 5.9 0 1 0 -11.8 0zM1481.85 149.98 a5.9 5.9 0 1 0 11.8 0 a5.9 5.9 0 1 0 -11.8 0zM1430.76 179.48 a5.9 5.9 0 1 0 11.8 0 a5.9 5.9 0 1 0 -11.8 0zM1379.66 149.98 a5.9 5.9 0 1 0 11.8 0 a5.9 5.9 0 1 0 -11.8 0zM1379.66 90.98 a5.9 5.9 0 1 0 11.8 0 a5.9 5.9 0 1 0 -11.8 0zM1430.76 415.48 a5.9 5.9 0 1 0 11.8 0 a5.9 5.9 0 1 0 -11.8 0zM1481.85 444.98 a5.9 5.9 0 1 0 11.8 0 a5.9 5.9 0 1 0 -11.8 0zM1481.85 503.98 a5.9 5.9 0 1 0 11.8 0 a5.9 5.9 0 1 0 -11.8 0zM1430.76 533.48 a5.9 5.9 0 1 0 11.8 0 a5.9 5.9 0 1 0 -11.8 0zM1379.66 503.98 a5.9 5.9 0 1 0 11.8 0 a5.9 5.9 0 1 0 -11.8 0zM1379.66 444.98 a5.9 5.9 0 1 0 11.8 0 a5.9 5.9 0 1 0 -11.8 0zM1532.95 238.48 a5.9 5.9 0 1 0 11.8 0 a5.9 5.9 0 1 0 -11.8 0zM1584.05 267.98 a5.9 5.9 0 1 0 11.8 0 a5.9 5.9 0 1 0 -11.8 0zM1584.05 326.98 a5.9 5.9 0 1 0 11.8 0 a5.9 5.9 0 1 0 -11.8 0zM1532.95 356.48 a5.9 5.9 0 1 0 11.8 0 a5.9 5.9 0 1 0 -11.8 0zM1481.85 326.98 a5.9 5.9 0 1 0 11.8 0 a5.9 5.9 0 1 0 -11.8 0zM1481.85 267.98 a5.9 5.9 0 1 0 11.8 0 a5.9 5.9 0 1 0 -11.8 0zM1532.95 533.48 a5.9 5.9 0 1 0 11.8 0 a5.9 5.9 0 1 0 -11.8 0zM1532.95 592.48 a5.9 5.9 0 1 0 11.8 0 a5.9 5.9 0 1 0 -11.8 0zM1481.85 621.98 a5.9 5.9 0 1 0 11.8 0 a5.9 5.9 0 1 0 -11.8 0zM1430.76 592.48 a5.9 5.9 0 1 0 11.8 0 a5.9 5.9 0 1 0 -11.8 0z" fill="rgba(2, 52, 101, 1)"></path><path d="M17.35 253.4L60.65 278.4L60.65 328.4L17.35 353.4L-25.95 328.4L-25.95 278.4zM17.35 403.4L60.65 428.4L60.65 478.4L17.35 503.4L-25.95 478.4L-25.95 428.4zM103.96 -46.6L147.26 -21.6L147.26 28.4L103.96 53.4L60.65 28.4L60.65 -21.6zM147.26 28.4L190.56 53.4L190.56 103.4L147.26 128.4L103.96 103.4L103.96 53.4zM103.96 253.4L147.26 278.4L147.26 328.4L103.96 353.4L60.65 328.4L60.65 278.4zM103.96 403.4L147.26 428.4L147.26 478.4L103.96 503.4L60.65 478.4L60.65 428.4zM147.26 478.4L190.56 503.4L190.56 553.4L147.26 578.4L103.96 553.4L103.96 503.4zM190.56 253.4L233.86 278.4L233.86 328.4L190.56 353.4L147.26 328.4L147.26 278.4zM320.47 178.4L363.77 203.4L363.77 253.4L320.47 278.4L277.17 253.4L277.17 203.4zM277.17 403.4L320.47 428.4L320.47 478.4L277.17 503.4L233.86 478.4L233.86 428.4zM407.07 28.4L450.38 53.4L450.38 103.4L407.07 128.4L363.77 103.4L363.77 53.4zM407.07 178.4L450.38 203.4L450.38 253.4L407.07 278.4L363.77 253.4L363.77 203.4zM407.07 328.4L450.38 353.4L450.38 403.4L407.07 428.4L363.77 403.4L363.77 353.4zM407.07 478.4L450.38 503.4L450.38 553.4L407.07 578.4L363.77 553.4L363.77 503.4zM493.68 328.4L536.98 353.4L536.98 403.4L493.68 428.4L450.38 403.4L450.38 353.4zM580.28 178.4L623.59 203.4L623.59 253.4L580.28 278.4L536.98 253.4L536.98 203.4zM666.89 328.4L710.19 353.4L710.19 403.4L666.89 428.4L623.59 403.4L623.59 353.4zM623.59 403.4L666.89 428.4L666.89 478.4L623.59 503.4L580.28 478.4L580.28 428.4zM666.89 478.4L710.19 503.4L710.19 553.4L666.89 578.4L623.59 553.4L623.59 503.4zM753.49 178.4L796.8 203.4L796.8 253.4L753.49 278.4L710.19 253.4L710.19 203.4zM710.19 253.4L753.49 278.4L753.49 328.4L710.19 353.4L666.89 328.4L666.89 278.4zM753.49 478.4L796.8 503.4L796.8 553.4L753.49 578.4L710.19 553.4L710.19 503.4zM840.1 28.4L883.4 53.4L883.4 103.4L840.1 128.4L796.8 103.4L796.8 53.4zM796.8 103.4L840.1 128.4L840.1 178.4L796.8 203.4L753.49 178.4L753.49 128.4zM840.1 178.4L883.4 203.4L883.4 253.4L840.1 278.4L796.8 253.4L796.8 203.4zM796.8 253.4L840.1 278.4L840.1 328.4L796.8 353.4L753.49 328.4L753.49 278.4zM796.8 403.4L840.1 428.4L840.1 478.4L796.8 503.4L753.49 478.4L753.49 428.4zM840.1 478.4L883.4 503.4L883.4 553.4L840.1 578.4L796.8 553.4L796.8 503.4zM883.4 103.4L926.7 128.4L926.7 178.4L883.4 203.4L840.1 178.4L840.1 128.4zM926.7 178.4L970.01 203.4L970.01 253.4L926.7 278.4L883.4 253.4L883.4 203.4zM1013.31 478.4L1056.61 503.4L1056.61 553.4L1013.31 578.4L970.01 553.4L970.01 503.4zM1099.91 328.4L1143.21 353.4L1143.21 403.4L1099.91 428.4L1056.61 403.4L1056.61 353.4zM1099.91 478.4L1143.21 503.4L1143.21 553.4L1099.91 578.4L1056.61 553.4L1056.61 503.4zM1143.21 103.4L1186.52 128.4L1186.52 178.4L1143.21 203.4L1099.91 178.4L1099.91 128.4zM1186.52 328.4L1229.82 353.4L1229.82 403.4L1186.52 428.4L1143.21 403.4L1143.21 353.4zM1273.12 28.4L1316.42 53.4L1316.42 103.4L1273.12 128.4L1229.82 103.4L1229.82 53.4zM1273.12 178.4L1316.42 203.4L1316.42 253.4L1273.12 278.4L1229.82 253.4L1229.82 203.4zM1229.82 253.4L1273.12 278.4L1273.12 328.4L1229.82 353.4L1186.52 328.4L1186.52 278.4zM1316.42 103.4L1359.73 128.4L1359.73 178.4L1316.42 203.4L1273.12 178.4L1273.12 128.4zM1316.42 403.4L1359.73 428.4L1359.73 478.4L1316.42 503.4L1273.12 478.4L1273.12 428.4zM1359.73 478.4L1403.03 503.4L1403.03 553.4L1359.73 578.4L1316.42 553.4L1316.42 503.4zM1403.03 253.4L1446.33 278.4L1446.33 328.4L1403.03 353.4L1359.73 328.4L1359.73 278.4zM1446.33 478.4L1489.63 503.4L1489.63 553.4L1446.33 578.4L1403.03 553.4L1403.03 503.4z" stroke="rgba(2, 52, 103, 0.93)" stroke-width="2"></path></g><defs><mask id="SvgjsMask1097"><rect width="1440" height="560" fill="#ffffff"></rect></mask></defs></svg>